<svg xmlns="http://www.w3.org/2000/svg" xmlns:xlink="http://www.w3.org/1999/xlink" viewBox="0 0 500 650" width="528" height="528" preserveAspectRatio="xMidYMid meet" style="width: 100%; height: 100%; transform: translate3d(0px, 0px, 0px); content-visibility: visible; background-color: transparent;"><defs><clipPath id="__lottie_element_2"><rect width="500" height="650" x="0" y="0"/></clipPath><clipPath id="__lottie_element_10"><path d="M0,0 L750,0 L750,550 L0,550z"/></clipPath><radialGradient id="__lottie_element_68" spreadMethod="pad" gradientUnits="userSpaceOnUse" cx="0" cy="12" r="138.2931668593933" fx="0" fy="12"><stop offset="0%" stop-color="rgb(153,71,20)"/><stop offset="26%" stop-color="rgb(108,45,11)"/><stop offset="75%" stop-color="rgb(62,18,3)"/><stop offset="88%" stop-color="rgb(41,18,11)"/><stop offset="100%" stop-color="rgb(20,19,18)"/></radialGradient><linearGradient id="__lottie_element_72" spreadMethod="pad" gradientUnits="userSpaceOnUse" x1="50" y1="50" x2="50" y2="243"><stop offset="0%" stop-color="rgb(252,245,197)"/><stop offset="9%" stop-color="rgb(241,214,156)"/><stop offset="100%" stop-color="rgb(231,184,115)"/></linearGradient><radialGradient id="__lottie_element_76" spreadMethod="pad" gradientUnits="userSpaceOnUse" cx="609" cy="99" r="571.9947552207101" fx="609" fy="99"><stop offset="0%" stop-color="rgb(231,184,115)"/><stop offset="10%" stop-color="rgb(241,214,156)"/><stop offset="50%" stop-color="rgb(252,245,197)"/><stop offset="91%" stop-color="rgb(241,214,156)"/><stop offset="100%" stop-color="rgb(231,184,115)"/></radialGradient><linearGradient id="__lottie_element_80" spreadMethod="pad" gradientUnits="userSpaceOnUse" x1="50" y1="50" x2="50" y2="277"><stop offset="0%" stop-color="rgb(252,245,197)"/><stop offset="14%" stop-color="rgb(241,214,156)"/><stop offset="52%" stop-color="rgb(231,184,115)"/><stop offset="90%" stop-color="rgb(217,163,109)"/><stop offset="100%" stop-color="rgb(204,141,103)"/></linearGradient><linearGradient id="__lottie_element_86" spreadMethod="pad" gradientUnits="userSpaceOnUse" x1="50" y1="50" x2="50" y2="243"><stop offset="0%" stop-color="rgb(252,245,197)"/><stop offset="26%" stop-color="rgb(241,214,156)"/><stop offset="100%" stop-color="rgb(231,184,115)"/></linearGradient><g id="__lottie_element_109"><g transform="matrix(0.660637617111206,-0.00977652333676815,0.00977652333676815,0.660637617111206,151.7191619873047,102.72057342529297)" opacity="1" style="display: block;"><g opacity="1" transform="matrix(1,0,0,1,334.3389892578125,216.25)"><path fill="rgb(235,200,124)" fill-opacity="1" d=" M110.2699966430664,-195.4250030517578 C77.71800231933594,-211.19500732421875 57.643001556396484,-216 2.990000009536743,-216 C-49.27199935913086,-216 -68.92400360107422,-212.35400390625 -98.20600128173828,-198.70700073242188 C-188.44200134277344,-151.1790008544922 -238.98300170898438,-40.54499816894531 -277.5880126953125,33.875999450683594 C-334.0899963378906,142.7989959716797 -104.9800033569336,216 2.990000009536743,216 C110.95999908447266,216 334.0899963378906,145.697998046875 283.5679931640625,33.875999450683594 C245.88499450683594,-49.527000427246094 198.38499450683594,-146.8249969482422 110.2699966430664,-195.4250030517578z"/></g></g></g><mask id="__lottie_element_109_1" mask-type="alpha"><use xmlns:ns1="http://www.w3.org/1999/xlink" ns1:href="#__lottie_element_109"/></mask><linearGradient id="__lottie_element_124" spreadMethod="pad" gradientUnits="userSpaceOnUse" x1="0" y1="72" x2="100" y2="-153"><stop offset="0%" stop-color="rgb(243,126,38)"/><stop offset="50%" stop-color="rgb(237,91,32)"/><stop offset="100%" stop-color="rgb(231,56,25)"/></linearGradient><linearGradient id="__lottie_element_219" spreadMethod="pad" gradientUnits="userSpaceOnUse" x1="0.18299999833106995" y1="-126.3479995727539" x2="-0.49300000071525574" y2="139.94400024414062"><stop offset="0%" stop-color="rgb(252,245,227)"/><stop offset="46%" stop-color="rgb(249,235,211)"/><stop offset="60%" stop-color="rgb(246,225,195)"/><stop offset="80%" stop-color="rgb(248,233,204)"/><stop offset="100%" stop-color="rgb(250,240,213)"/></linearGradient><radialGradient id="__lottie_element_223" spreadMethod="pad" gradientUnits="userSpaceOnUse" cx="28.969999313354492" cy="-35.33599853515625" r="75.61068484361184" fx="28.969999313354492" fy="-35.33599853515625"><stop offset="0%" stop-color="rgb(252,245,197)"/><stop offset="20%" stop-color="rgb(241,214,156)"/><stop offset="100%" stop-color="rgb(231,184,115)"/></radialGradient><radialGradient id="__lottie_element_233" spreadMethod="pad" gradientUnits="userSpaceOnUse" cx="-3.497999906539917" cy="-40.76100158691406" r="70.67231723377182" fx="-3.497999906539917" fy="-40.76100158691406"><stop offset="0%" stop-color="rgb(252,245,197)"/><stop offset="20%" stop-color="rgb(241,214,156)"/><stop offset="47%" stop-color="rgb(231,184,115)"/></radialGradient><linearGradient id="__lottie_element_237" spreadMethod="pad" gradientUnits="userSpaceOnUse" x1="-47.82699966430664" y1="11.840999603271484" x2="33.095001220703125" y2="50.696998596191406"><stop offset="0%" stop-color="rgb(249,232,178)"/><stop offset="12%" stop-color="rgb(240,208,147)"/><stop offset="24%" stop-color="rgb(231,184,115)"/></linearGradient><linearGradient id="__lottie_element_250" spreadMethod="pad" gradientUnits="userSpaceOnUse" x1="949" y1="-239" x2="121" y2="192"><stop offset="88%" stop-color="rgb(252,245,197)"/><stop offset="94%" stop-color="rgb(241,214,156)"/><stop offset="100%" stop-color="rgb(231,184,115)"/></linearGradient><radialGradient id="__lottie_element_263" spreadMethod="pad" gradientUnits="userSpaceOnUse" cx="784" cy="-239" r="790.7780978251737" fx="784" fy="-239"><stop offset="9%" stop-color="rgb(62,18,3)"/><stop offset="25%" stop-color="rgb(147,101,59)"/><stop offset="83%" stop-color="rgb(231,184,115)"/><stop offset="94%" stop-color="rgb(147,101,59)"/><stop offset="100%" stop-color="rgb(62,18,3)"/></radialGradient></defs><g clip-path="url(#__lottie_element_2)"><g transform="matrix(0.9700000286102295,0,0,0.8799999952316284,251.9490203857422,428.9107360839844)" opacity="0.5" style="display: block;"><g opacity="1" transform="matrix(1,0,0,1,-1.6990000009536743,215.92300415039062)"><path fill="rgb(191,188,188)" fill-opacity="1" d=" M0,-11.922499656677246 C87.36631774902344,-11.922499656677246 158.30099487304688,-6.5800275802612305 158.30099487304688,0 C158.30099487304688,6.5800275802612305 87.36631774902344,11.922499656677246 0,11.922499656677246 C-87.36631774902344,11.922499656677246 -158.30099487304688,6.5800275802612305 -158.30099487304688,0 C-158.30099487304688,-6.5800275802612305 -87.36631774902344,-11.922499656677246 0,-11.922499656677246z"/><path stroke-linecap="butt" stroke-linejoin="miter" fill-opacity="0" stroke-miterlimit="4" stroke="rgb(255,255,255)" stroke-opacity="1" stroke-width="58" d="M0 0"/></g></g><g transform="matrix(0.9928637742996216,-0.11925365030765533,0.11925365030765533,0.9928637742996216,186.44686889648438,380.311767578125)" opacity="1" style="display: block;"><path fill="url(#__lottie_element_263)" fill-opacity="1" d=" M201.69,17.28 C198.01,18.19 194.52,19.36 191.53,20.86 C188.52,22.34 186.13,24.21 184.4,26.17 C182.7,28.19 181.63,30.3 180.79,32.82 C179.96,35.34 179.37,38.28 178.89,41.7 C177.89,48.5 177.47,56.9 175.57,66.6 C174.59,71.45 173.65,75.47 171.45,80.83 C169.3,86.17 166.33,91.65 162.51,96.7 C158.72,101.75 154.17,106.35 149.3,110.22 C144.44,114.1 139.3,117.29 134.17,119.94 C129.04,122.6 123.9,124.76 118.82,126.6 C113.78,128.37 108.74,129.91 103.82,131.15 C93.91,133.7 84.32,135.32 74.86,136.59 C65.4,137.83 56.11,138.63 46.91,139.19 C46.91,139.19 45.64,139.27 45.64,139.27 C22.72,140.65 3.01,123.18 1.63,100.26 C0.25,77.33 17.72,57.63 40.64,56.25 C45.38,55.96 50.14,56.54 54.47,57.74 C61.7,59.79 68.88,61.62 75.92,63.11 C82.95,64.58 89.89,65.78 96.37,66.39 C99.65,66.74 102.74,66.89 105.78,66.98 C108.75,67.02 111.56,66.93 114.16,66.71 C116.76,66.48 119.11,66.11 121.22,65.59 C123.34,65.07 125.24,64.42 127.09,63.46 C128.96,62.52 130.77,61.2 132.59,59.33 C134.43,57.48 135.82,56.2 137.58,53.28 C139.34,50.37 141.05,46.92 142.84,43.17 C144.65,39.38 146.51,35.28 148.82,30.89 C151.11,26.55 153.88,21.89 157.59,17.52 C161.26,13.13 166.03,9.2 171.16,6.58 C176.31,3.98 181.61,2.58 186.59,2.01 C191.58,1.43 196.31,1.55 200.86,1.97 C205.12,2.38 208.25,6.15 207.85,10.41 C207.53,13.78 205.1,16.44 201.99,17.21 C201.99,17.21 201.69,17.28 201.69,17.28z"/><g opacity="1" transform="matrix(1,0,0,1,104.4530029296875,70.4489974975586)"/></g><g transform="matrix(1,-0.0000102079911812325,0.0000102079911812325,1,289.6778869628906,582.30615234375)" opacity="1" style="display: block;"><g opacity="1" transform="matrix(1,0,0,1,57.875,21.381000518798828)"><path fill="rgb(231,184,115)" fill-opacity="1" d=" M-44.763999938964844,-19.517000198364258 C-10.78499984741211,-21.131000518798828 14.456999778747559,-19.388999938964844 33.060001373291016,-15.609000205993652 C44.45000076293945,-13.293999671936035 57.625999450683594,4.452000141143799 48.986000061035156,12.225000381469727 C48.986000061035156,12.225000381469727 42.518001556396484,17.600000381469727 39.946998596191406,18.628000259399414 C34.888999938964844,20.64900016784668 22.68199920654297,21.131000518798828 18.21299934387207,20.14299964904785 C-2.236999988555908,15.621000289916992 -22.7189998626709,10.906000137329102 -43.46699905395508,5.078000068664551 C-51.6150016784668,2.7890000343322754 -57.625,-5.013000011444092 -51.4640007019043,-15.529000282287598 C-50.06999969482422,-17.90999984741211 -47.52000045776367,-19.38599967956543 -44.763999938964844,-19.517000198364258z"/></g></g><g transform="matrix(1,0.000008303290087496862,-0.000008303290087496862,1,354.79730224609375,588.8971557617188)" opacity="1" style="display: block;"><g opacity="1" transform="matrix(1,0,0,1,38.40599822998047,23.94300079345703)"><path fill="rgb(62,18,3)" fill-opacity="1" d=" M34.446998596191406,3.9590001106262207 C30.95400047302246,-5.257999897003174 21.70199966430664,-14.633000373840332 1.7589999437332153,-21.065000534057617 C-6.392000198364258,-23.69300079345703 -15.33899974822998,-22.195999145507812 -22.218000411987305,-17.097000122070312 C-26.902000427246094,-13.62399959564209 -30.79400062561035,-9.743000030517578 -33.742000579833984,-5.584000110626221 C-38.15599822998047,0.6399999856948853 -34.816001892089844,9.354000091552734 -27.365999221801758,11.001999855041504 C-11.91100025177002,14.420000076293945 3.5239999294281006,17.729999542236328 19.04400062561035,21.32900047302246 C29.235000610351562,23.69300079345703 38.15599822998047,13.741999626159668 34.446998596191406,3.9590001106262207z"/></g></g><g transform="matrix(0.9907283782958984,-0.13585738837718964,0.13585738837718964,0.9907283782958984,276.5916442871094,475.8388366699219)" opacity="1" style="display: block;"><g opacity="1" transform="matrix(1,0,0,1,42.970001220703125,68.0469970703125)"><path fill="rgb(231,184,115)" fill-opacity="1" d=" M-42.70800018310547,55.266998291015625 C-42.70800018310547,55.266998291015625 -42.71699905395508,55.263999938964844 -42.71699905395508,55.263999938964844 C-38.52399826049805,33.73099899291992 -39.00600051879883,6.676000118255615 -41.255001068115234,-22.466999053955078 C-41.255001068115234,-22.466999053955078 -41.24700164794922,-22.46299934387207 -41.24700164794922,-22.46299934387207 C-40.96799850463867,-37.321998596191406 -32.479000091552734,-51.46500015258789 -18.134000778198242,-58.25299835205078 C2.0329999923706055,-67.7959976196289 26.118000030517578,-59.18299865722656 35.6609992980957,-39.01599884033203 C42.720001220703125,-24.099000930786133 39.83700180053711,-7.046000003814697 29.700000762939453,4.688000202178955 C29.700000762939453,4.688000202178955 29.711000442504883,4.691999912261963 29.711000442504883,4.691999912261963 C29.711000442504883,4.691999912261963 -21.113000869750977,63.53499984741211 -21.113000869750977,63.53499984741211 C-21.113000869750977,63.53499984741211 -21.12299919128418,63.529998779296875 -21.12299919128418,63.529998779296875 C-23.378000259399414,66.13899993896484 -26.70400047302246,67.7959976196289 -30.42300033569336,67.7959976196289 C-37.2140007019043,67.7959976196289 -42.720001220703125,62.290000915527344 -42.720001220703125,55.499000549316406 C-42.720001220703125,55.42100143432617 -42.70899963378906,55.345001220703125 -42.70800018310547,55.266998291015625z"/></g></g><g transform="matrix(0.988648533821106,-0.1502465158700943,0.1502465158700943,0.988648533821106,227.1752166748047,398.31451416015625)" opacity="1" style="display: block;"><path fill="url(#__lottie_element_250)" fill-opacity="1" d=" M133.57,139.73 C135.28,145.16 129.92,149.92 125.2,146.72 C123.3,145.43 121.13,143.99 118.8,142.48 C120.79,147.66 121.7,152.41 121.81,156.93 C121.9,160.53 117.13,161.86 115.25,158.78 C114.47,157.5 113.38,155.97 112.01,154.28 C109.36,157.69 106.24,160.79 102.67,163.44 C85.17,176.46 60.51,173.24 46.94,156.17 C46.94,156.17 10.77,90.23 -26.06,81.81 C-25.45,60.02 51.27,0.25 51.27,0.25 C62.3,42.59 97.29,69.57 116.07,103.13 C121.03,111.98 129.5,126.84 133.57,139.73z"/><g opacity="1" transform="matrix(1,0,0,1,67.76599884033203,88.35299682617188)"/></g><g transform="matrix(1,0.0000047157354856608436,-0.0000047157354856608436,1,98.404052734375,583.8055419921875)" opacity="1" style="display: block;"><g opacity="1" transform="matrix(1,0,0,1,57.875,21.381000518798828)"><path fill="rgb(231,184,115)" fill-opacity="1" d=" M44.76499938964844,-19.517000198364258 C10.78499984741211,-21.131000518798828 -14.456000328063965,-19.388999938964844 -33.060001373291016,-15.609000205993652 C-44.44900131225586,-13.293999671936035 -57.625,4.452000141143799 -48.98500061035156,12.225000381469727 C-48.98500061035156,12.225000381469727 -42.518001556396484,17.600000381469727 -39.94599914550781,18.628000259399414 C-34.88800048828125,20.64900016784668 -22.68199920654297,21.131000518798828 -18.211999893188477,20.14299964904785 C2.236999988555908,15.621000289916992 22.7189998626709,10.906000137329102 43.46699905395508,5.078000068664551 C51.6150016784668,2.7890000343322754 57.625,-5.013000011444092 51.46500015258789,-15.529000282287598 C50.07099914550781,-17.90999984741211 47.520999908447266,-19.38599967956543 44.76499938964844,-19.517000198364258z"/></g></g><g transform="matrix(1,-0.0000015676411067033769,0.0000015676411067033769,1,72.23091125488281,589.3977661132812)" opacity="1" style="display: block;"><g opacity="1" transform="matrix(1,0,0,1,38.404998779296875,23.94300079345703)"><path fill="rgb(62,18,3)" fill-opacity="1" d=" M-34.446998596191406,3.9590001106262207 C-30.95400047302246,-5.257999897003174 -21.70199966430664,-14.633000373840332 -1.7580000162124634,-21.065000534057617 C6.392000198364258,-23.69300079345703 15.338000297546387,-22.195999145507812 22.218000411987305,-17.097000122070312 C26.900999069213867,-13.62399959564209 30.79400062561035,-9.743000030517578 33.74300003051758,-5.584000110626221 C38.15599822998047,0.6399999856948853 34.814998626708984,9.354000091552734 27.364999771118164,11.001999855041504 C11.91100025177002,14.420000076293945 -3.5250000953674316,17.729999542236328 -19.04400062561035,21.32900047302246 C-29.236000061035156,23.69300079345703 -38.154998779296875,13.741999626159668 -34.446998596191406,3.9590001106262207z"/></g></g><g transform="matrix(0.9912003874778748,0.13236959278583527,-0.13236959278583527,0.9912003874778748,141.44558715820312,465.6585998535156)" opacity="1" style="display: block;"><g opacity="1" transform="matrix(1,0,0,1,42.970001220703125,68.0469970703125)"><path fill="rgb(231,184,115)" fill-opacity="1" d=" M42.70800018310547,55.266998291015625 C42.70800018310547,55.266998291015625 42.71699905395508,55.263999938964844 42.71699905395508,55.263999938964844 C35.45600128173828,30.72100067138672 33.09700012207031,4.689000129699707 41.255001068115234,-22.466999053955078 C41.255001068115234,-22.466999053955078 41.24700164794922,-22.46299934387207 41.24700164794922,-22.46299934387207 C40.96799850463867,-37.321998596191406 32.47800064086914,-51.46500015258789 18.134000778198242,-58.25299835205078 C-2.0329999923706055,-67.7959976196289 -26.118000030517578,-59.18299865722656 -35.6609992980957,-39.01599884033203 C-42.720001220703125,-24.099000930786133 -39.83599853515625,-7.046000003814697 -29.700000762939453,4.688000202178955 C-29.700000762939453,4.688000202178955 -29.711000442504883,4.691999912261963 -29.711000442504883,4.691999912261963 C-29.711000442504883,4.691999912261963 21.113000869750977,63.53499984741211 21.113000869750977,63.53499984741211 C21.113000869750977,63.53499984741211 21.124000549316406,63.529998779296875 21.124000549316406,63.529998779296875 C23.378000259399414,66.13800048828125 26.70400047302246,67.7959976196289 30.42300033569336,67.7959976196289 C37.2140007019043,67.7959976196289 42.720001220703125,62.290000915527344 42.720001220703125,55.499000549316406 C42.720001220703125,55.42100143432617 42.70899963378906,55.345001220703125 42.70800018310547,55.266998291015625z"/></g></g><g transform="matrix(0.9987390041351318,0.050202831625938416,-0.050202831625938416,0.9987390041351318,128.24391174316406,383.4684753417969)" opacity="1" style="display: block;"><g opacity="1" transform="matrix(1,0,0,1,67.76699829101562,88.35299682617188)"><path fill="url(#__lottie_element_237)" fill-opacity="1" d=" M-65.8030014038086,51.37900161743164 C-67.51699829101562,56.8120002746582 -62.15700149536133,61.5629997253418 -57.4379997253418,58.37099838256836 C-55.53200149536133,57.082000732421875 -53.36399841308594,55.63999938964844 -51.0359992980957,54.125 C-53.02899932861328,59.308998107910156 -53.933998107910156,64.05899810791016 -54.04499816894531,68.572998046875 C-54.132999420166016,72.17400360107422 -49.36000061035156,73.50499725341797 -47.48699951171875,70.43000030517578 C-46.70199966430664,69.14299774169922 -45.60900115966797,67.61799621582031 -44.25,65.93000030517578 C-41.59600067138672,69.33899688720703 -38.46900177001953,72.43800354003906 -34.902000427246094,75.08999633789062 C-17.4060001373291,88.10299682617188 7.258999824523926,84.88200378417969 20.827999114990234,67.81600189208984 C20.827999114990234,67.81600189208984 72.7558822631836,-2.3806378841400146 83.28684997558594,-3.108447790145874 C82.86555480957031,-18.255624771118164 16.492000579833984,-88.10299682617188 16.492000579833984,-88.10299682617188 C5.4629998207092285,-45.76300048828125 -29.523000717163086,-18.78700065612793 -48.308998107910156,14.776000022888184 C-53.26300048828125,23.62700080871582 -61.73400115966797,38.483001708984375 -65.8030014038086,51.37900161743164z"/></g></g><g transform="matrix(0.9454970955848694,-0.3256304860115051,0.3256304860115051,0.9454970955848694,88.15564727783203,273.7717590332031)" opacity="1" style="display: block;"><g opacity="1" transform="matrix(1,0,0,1,83.9729995727539,30.674999237060547)"><path fill="url(#__lottie_element_233)" fill-opacity="1" d=" M56.17912673950195,40.94784927368164 C71.51161193847656,53.49559783935547 70.65499877929688,21.638999938964844 78.98600006103516,2.871000051498413 C83.7229995727539,-7.0929999351501465 83.13800048828125,-12.720000267028809 77.36399841308594,-18.062000274658203 C64.44599914550781,-30.013999938964844 40.19599914550781,-13.074999809265137 5.550000190734863,-16.944000244140625 C-15.559000015258789,-19.302000045776367 -41.79600143432617,-30.423999786376953 -56.54999923706055,-26.121000289916992 C-66.60900115966797,-23.187999725341797 -73.72699737548828,-16.39900016784668 -80.1760025024414,-10.076000213623047 C-83.7229995727539,-6.598999977111816 -81.5469970703125,-0.7459999918937683 -76.60700225830078,-1.2660000324249268 C-74.61199951171875,-1.4759999513626099 -72.35199737548828,-1.6970000267028809 -69.94000244140625,-1.9079999923706055 C-73.5989990234375,1.2630000114440918 -76.24299621582031,4.546999931335449 -78.18000030517578,7.97599983215332 C-79.7239990234375,10.710000038146973 -76.59700012207031,13.690999984741211 -73.89399719238281,12.093000411987305 C-72.3499984741211,11.180000305175781 -70.19599914550781,10.164999961853027 -67.55699920654297,9.142000198364258 C-48.2140007019043,1.5379999876022339 29.509279251098633,19.33990478515625 56.17912673950195,40.94784927368164z"/></g></g><g transform="matrix(-0.46506690979003906,-0.8852756023406982,0.8852756023406982,-0.46506690979003906,162.53565979003906,371.3146667480469)" opacity="1" style="display: block;"><g opacity="1" transform="matrix(1,0,0,1,0,0)"/><g opacity="1" transform="matrix(1,0,0,1,54.297000885009766,13.050999641418457)"><path fill="rgb(231,184,115)" fill-opacity="1" d=" M-45.9739990234375,5.883999824523926 C-45.9739990234375,5.883999824523926 -45.9739990234375,5.896999835968018 -45.9739990234375,5.896999835968018 C-45.95399856567383,5.895999908447266 -45.93000030517578,5.895999908447266 -45.90999984741211,5.894000053405762 C-45.33399963378906,5.934999942779541 -44.75899887084961,5.906000137329102 -44.18600082397461,5.818999767303467 C-27.89900016784668,5.1539998054504395 5.797999858856201,8.918000221252441 38.979000091552734,12.550999641418457 C38.979000091552734,12.550999641418457 38.979000091552734,12.541999816894531 38.979000091552734,12.541999816894531 C42.28200149536133,12.800999641418457 45.68299865722656,11.777000427246094 48.356998443603516,9.402000427246094 C53.57400131225586,4.769000053405762 54.047000885009766,-3.2170000076293945 49.41400146484375,-8.4350004196167 C46.810001373291016,-11.366999626159668 43.14799880981445,-12.800999641418457 39.51300048828125,-12.67199993133545 C39.512001037597656,-12.67199993133545 39.51100158691406,-12.67199993133545 39.50899887084961,-12.67199993133545 C38.81399917602539,-12.647000312805176 38.119998931884766,-12.553000450134277 37.433998107910156,-12.413000106811523 C9.76539421081543,-13.37477970123291 -20.954498291015625,-13.783173561096191 -44.62739181518555,-10.022893905639648 C-45.453392028808594,-10.296893119812012 -46.30776596069336,-10.428893089294434 -47.1717643737793,-10.418893814086914 C-47.232765197753906,-10.428893089294434 -47.29838943481445,-10.436893463134766 -47.35939025878906,-10.447893142700195 C-47.35939025878906,-10.447893142700195 -47.360389709472656,-10.411893844604492 -47.360389709472656,-10.411893844604492 C-49.10639190673828,-10.349893569946289 -49.130001068115234,-8.946999549865723 -50.53900146484375,-7.696000099182129 C-53.75600051879883,-4.839000225067139 -54.047000885009766,0.0860000029206276 -51.189998626708984,3.302999973297119 C-49.797000885009766,4.872000217437744 -47.9119987487793,5.73199987411499 -45.9739990234375,5.883999824523926z"/></g></g><g transform="matrix(0.9995498061180115,0.030002303421497345,-0.030002303421497345,0.9995498061180115,196.49952697753906,198.97476196289062)" opacity="1" style="display: block;"><g opacity="1" transform="matrix(1,0,0,1,56.89400100708008,161.65199279785156)"><path fill="rgb(231,184,115)" fill-opacity="1" d=" M38.80400085449219,-98.63500213623047 C44.263999938964844,-91.03500366210938 47.34000015258789,-82.12300109863281 47.702999114990234,-72.86100006103516 C47.83599853515625,-69.46299743652344 47.61199951171875,-66.05799865722656 47.0359992980957,-62.742000579833984 C41.56399917602539,-31.20800018310547 40.77299880981445,-2.7260000705718994 44.61800003051758,24.33300018310547 C51.95899963378906,75.97599792480469 56.64400100708008,91.51100158691406 56.64400100708008,104.75800323486328 C56.64400100708008,135.99099731445312 31.235000610351562,161.4010009765625 0,161.4010009765625 C-31.233999252319336,161.4010009765625 -56.64400100708008,135.99099731445312 -56.64400100708008,104.75800323486328 C-56.64400100708008,92.08699798583984 -52.154998779296875,78.22699737548828 -45.12099838256836,27.89699935913086 C-40.64699935913086,-4.118000030517578 -41.20199966430664,-34.138999938964844 -46.77000045776367,-61.33399963378906 C-47.41400146484375,-64.4800033569336 -47.74100112915039,-67.71600341796875 -47.74100112915039,-70.95099639892578 C-47.74100112915039,-81.31500244140625 -44.474998474121094,-91.17400360107422 -38.297000885009766,-99.46099853515625 C-4.249000072479248,-145.13499450683594 -6.294000148773193,-161.40199279785156 38.80400085449219,-98.63500213623047z"/></g></g><g transform="matrix(-0.35373711585998535,0.9353448748588562,-0.9353448748588562,-0.35373711585998535,405.1099548339844,199.6609649658203)" opacity="1" style="display: block;"><g opacity="1" transform="matrix(1,0,0,1,54.316001892089844,13.043000221252441)"><path fill="rgb(231,184,115)" fill-opacity="1" d=" M46.082000732421875,4.5279998779296875 C46.082000732421875,4.5279998779296875 46.08300018310547,4.540999889373779 46.08300018310547,4.540999889373779 C46.0629997253418,4.539999961853027 46.03900146484375,4.540999889373779 46.01900100708008,4.539999961853027 C45.444000244140625,4.589000225067139 44.867000579833984,4.568999767303467 44.292999267578125,4.491000175476074 C27.99799919128418,4.074999809265137 -10.906798362731934,-0.6980916261672974 -38.75899887084961,12.493000030517578 C-38.75899887084961,12.493000030517578 -38.75899887084961,12.482999801635742 -38.75899887084961,12.482999801635742 C-42.058998107910156,12.791999816894531 -45.4739990234375,11.819999694824219 -48.183998107910156,9.486000061035156 C-53.47100067138672,4.934000015258789 -54.066001892089844,-3.0439999103546143 -49.513999938964844,-8.331999778747559 C-46.95500183105469,-11.303999900817871 -43.31399917602539,-12.793000221252441 -39.678001403808594,-12.720000267028809 C-39.678001403808594,-12.720000267028809 -39.678001403808594,-12.720000267028809 -39.678001403808594,-12.720000267028809 C-39.676998138427734,-12.718999862670898 -39.67599868774414,-12.720000267028809 -39.67399978637695,-12.720000267028809 C-38.979000091552734,-12.706000328063965 -38.28300094604492,-12.623000144958496 -37.59600067138672,-12.493000030517578 C-0.1809903234243393,-30.61709976196289 31.437393188476562,-10.998143196105957 44.639217376708984,-10.859142303466797 C45.4602165222168,-11.14614200592041 44.46500015258789,-10.970000267028809 45.33000183105469,-10.972999572753906 C45.39099884033203,-10.984999656677246 45.45600128173828,-10.991999626159668 45.516998291015625,-11.003999710083008 C45.516998291015625,-11.003999710083008 45.518001556396484,-10.970000267028809 45.518001556396484,-10.970000267028809 C47.26499938964844,-10.934000015258789 49.01100158691406,-10.348549842834473 50.4379997253418,-9.118550300598145 C53.69900131225586,-6.311549663543701 54.066001892089844,-1.3930000066757202 51.25899887084961,1.8680000305175781 C49.89099884033203,3.4570000171661377 48.018001556396484,4.3460001945495605 46.082000732421875,4.5279998779296875z"/></g></g><g transform="matrix(0.9560832381248474,-0.29309511184692383,0.29309511184692383,0.9560832381248474,240.23251342773438,233.80654907226562)" opacity="1" style="display: block;"><g opacity="1" transform="matrix(1,0,0,1,83.96199798583984,30.56999969482422)"><path fill="url(#__lottie_element_223)" fill-opacity="1" d=" M-72.55083465576172,47.721622467041016 C-64.36402130126953,34.68660354614258 -74.57437133789062,23.02968406677246 -82.65137481689453,4.149684906005859 C-87.25337219238281,-5.877315044403076 -86.59137725830078,-11.495314598083496 -80.74537658691406,-16.76031494140625 C-67.66737365722656,-28.535314559936523 -45.78244400024414,-28.148223876953125 -11.087442398071289,-31.549224853515625 C10.050557136535645,-33.622222900390625 43.80462646484375,-31.802093505859375 58.498626708984375,-27.30109214782715 C68.51762390136719,-24.232091903686523 74.50157928466797,-16.953289031982422 80.86457824707031,-10.544288635253906 C84.36457824707031,-7.019288539886475 81.40325927734375,-3.4561119079589844 76.47225952148438,-4.042111873626709 C74.48025512695312,-4.279111862182617 72.22325897216797,-4.531111717224121 69.81425476074219,-4.774111747741699 C73.43025970458984,-1.5541118383407593 77.68696594238281,4.411421298980713 79.57796478271484,7.865421295166016 C81.0849609375,10.620421409606934 77.91796112060547,13.55842113494873 75.2369613647461,11.924421310424805 C73.70596313476562,10.990421295166016 69.57506561279297,10.919466018676758 66.94906616210938,9.860466003417969 C47.71106719970703,1.9954663515090942 -38.1568717956543,26.583948135375977 -72.55083465576172,47.721622467041016z"/></g></g><g transform="matrix(0.9999999403953552,0,0,0.9999999403953552,232.1111602783203,179.06251525878906)" opacity="1" style="display: block;"><g opacity="1" transform="matrix(1,0,0,1,20.41699981689453,47.0359992980957)"><path fill="rgb(231,184,115)" fill-opacity="1" d=" M20.16699981689453,46.7859992980957 C20.16699981689453,46.7859992980957 -20.16699981689453,46.7859992980957 -20.16699981689453,46.7859992980957 C-20.16699981689453,46.7859992980957 -20.16699981689453,-46.7859992980957 -20.16699981689453,-46.7859992980957 C-20.16699981689453,-46.7859992980957 20.16699981689453,-46.7859992980957 20.16699981689453,-46.7859992980957 C20.16699981689453,-46.7859992980957 20.16699981689453,46.7859992980957 20.16699981689453,46.7859992980957z"/></g></g><g transform="matrix(0.9995498061180115,0.030002303421497345,-0.030002303421497345,0.9995498061180115,200.15028381347656,233.00160217285156)" opacity="1" style="display: block;"><g opacity="1" transform="matrix(1,0,0,1,52.222999572753906,140.53799438476562)"><path fill="url(#__lottie_element_219)" fill-opacity="1" d=" M-31.621999740600586,-109.87699890136719 C-36.518001556396484,-103.30899810791016 -39.41600036621094,-92.56300354003906 -39.41600036621094,-83.74099731445312 C-39.41600036621094,-81.01899719238281 -39.13999938964844,-78.36100006103516 -38.61399841308594,-75.79399871826172 C-32.41899871826172,-45.540000915527344 -32.7825927734375,-14.110471725463867 -37.05659103393555,16.47452735900879 C-44.1945915222168,67.54552459716797 -48.39725112915039,80.08269500732422 -48.38349533081055,91.9994888305664 C-48.354984283447266,118.68328857421875 -26.684999465942383,140.28799438476562 0.0010000000474974513,140.28799438476562 C26.687999725341797,140.28799438476562 48.20219802856445,118.7020034790039 48.23316955566406,92.01842498779297 C48.25812911987305,79.72052764892578 43.74929428100586,65.07763671875 36.31329345703125,12.766634941101074 C32.07429504394531,-17.054365158081055 33.685001373291016,-47.27799987792969 38.834999084472656,-76.95500183105469 C39.30500030517578,-79.66100311279297 39.499000549316406,-82.45999908447266 39.387001037597656,-85.3239974975586 C39.07899856567383,-93.18900299072266 36.39799880981445,-103.10800170898438 32.042999267578125,-109.16899871826172 C9.685999870300293,-140.28799438476562 -13.151000022888184,-134.65499877929688 -31.621999740600586,-109.87699890136719z"/></g><g opacity="1" transform="matrix(1,0,0,1,92.93099975585938,38.808998107910156)"><path fill="rgb(252,245,227)" fill-opacity="1" d=" M-14.434000015258789,-14.47700023651123 C-4.491000175476074,-0.44999998807907104 5.127999782562256,7.164999961853027 12.288000106811523,8.675000190734863 C14.25,9.08899974822998 14.434000015258789,11.842000007629395 12.527999877929688,12.461999893188477 C6.340000152587891,14.47700023651123 -1.621999979019165,14.031999588012695 -14.293000221252441,8.88599967956543"/></g><g opacity="1" transform="matrix(1,0,0,1,34.49700164794922,50.32699966430664)"><path fill="rgb(252,245,227)" fill-opacity="1" d=" M29.014999389648438,-11.156999588012695 C4.664999961853027,-7.603000164031982 -13.88700008392334,5.810999870300293 -22.992000579833984,13.722999572753906 C-25.386999130249023,15.803000450134277 -29.014999389648438,13.451000213623047 -28.086000442504883,10.418000221252441 C-24.60700035095215,-0.9340000152587891 -14.253000259399414,-15.803000450134277 0.1720000058412552,-15.631999969482422"/></g><g opacity="1" transform="matrix(1,0,0,1,70.45899963378906,50.32699966430664)"><path fill="rgb(252,245,227)" fill-opacity="1" d=" M-29.014999389648438,-11.156999588012695 C-4.664999961853027,-7.603000164031982 13.88700008392334,5.810999870300293 22.993000030517578,13.722999572753906 C25.386999130249023,15.803000450134277 29.014999389648438,13.451000213623047 28.086000442504883,10.418000221252441 C24.60700035095215,-0.9340000152587891 14.253000259399414,-15.803000450134277 -0.1720000058412552,-15.631999969482422"/></g><g opacity="1" transform="matrix(1,0,0,1,21.857999801635742,36.96799850463867)"><path fill="rgb(252,245,227)" fill-opacity="1" d=" M0.5929999947547913,-8.312000274658203 C-2.993000030517578,-4.686999797821045 -9.871999740600586,0.17900000512599945 -18.62299919128418,2.489000082015991 C-21.417999267578125,3.2269999980926514 -21.608999252319336,7.1020002365112305 -18.88599967956543,8.071999549865723 C-11.428000450134277,10.72700023651123 0.0729999989271164,10.496999740600586 21.608999252319336,-4.133999824523926 C21.608999252319336,-4.133999824523926 7.755000114440918,-9.732999801635742 7.755000114440918,-9.732999801635742 C5.297999858856201,-10.72700023651123 2.4570000171661377,-10.196999549865723 0.5929999947547913,-8.312000274658203z"/></g></g><g transform="matrix(0.18279708921909332,-0.8124982118606567,0.8124982118606567,0.18279708921909332,142.98757934570312,395.4735412597656)" opacity="1" style="display: block;"><g opacity="1" transform="matrix(1,0,0,1,28.60300064086914,27.63800048828125)"><path fill="rgb(62,18,3)" fill-opacity="1" d=" M0.43799999356269836,32.47100067138672 C-3.681999921798706,33.433998107910156 -8.083000183105469,30.42799949645996 -7.485000133514404,25.667999267578125 C-7.15500020980835,23.04800033569336 -5.090000152587891,21.03700065612793 -2.509999990463257,20.472000122070312 C-0.10999999940395355,19.947999954223633 2.7839999198913574,18.43199920654297 5.735000133514404,16.427000045776367 C6.441999912261963,15.946000099182129 6.111999988555908,14.831999778747559 5.25600004196167,14.831000328063965 C-2.75,14.819999694824219 -12.32699966430664,15.62399959564209 -17.941999435424805,16.77899932861328 C-20.711999893188477,17.347999572753906 -23.593000411987305,16.05299949645996 -24.812999725341797,13.50100040435791 C-26.631999969482422,9.701000213623047 -24.371000289916992,5.495999813079834 -20.530000686645508,4.698999881744385 C-17.32699966430664,4.033999919891357 -9.258000373840332,2.944999933242798 -0.6069999933242798,2.5950000286102295 C0.07699999958276749,2.566999912261963 0.5519999861717224,1.906000018119812 0.3529999852180481,1.2510000467300415 C0.3529999852180481,1.2510000467300415 0.34700000286102295,1.2309999465942383 0.34700000286102295,1.2309999465942383 C0.2160000056028366,0.7990000247955322 -0.1979999989271164,0.5149999856948853 -0.6480000019073486,0.5270000100135803 C-7.671999931335449,0.7149999737739563 -15.220999717712402,1.4299999475479126 -20.003999710083008,2.3949999809265137 C-23.283000946044922,3.056999921798706 -26.659000396728516,1.1640000343322754 -27.481000900268555,-2.078000068664551 C-28.35300064086914,-5.510000228881836 -26.18199920654297,-8.9399995803833 -22.750999450683594,-9.652000427246094 C-19.165000915527344,-10.395999908447266 -9.479000091552734,-11.670999526977539 0.29600000381469727,-11.845999717712402 C0.7710000276565552,-11.854000091552734 1.1749999523162842,-12.187999725341797 1.277999997138977,-12.652999877929688 C1.3179999589920044,-12.833000183105469 1.3580000400543213,-13.01099967956543 1.399999976158142,-13.189000129699707 C1.5449999570846558,-13.810999870300293 1.0920000076293945,-14.407999992370605 0.453000009059906,-14.437000274658203 C-3.746999979019165,-14.628999710083008 -8.854000091552734,-14.673999786376953 -15.079000473022461,-14.489999771118164 C-18.461000442504883,-14.390999794006348 -21.49799919128418,-16.895999908447266 -21.704999923706055,-20.273000717163086 C-21.91900062561035,-23.768999099731445 -19.20199966430664,-26.724000930786133 -15.727999687194824,-26.82900047302246 C2.6740000247955322,-27.38800048828125 14.848999977111816,-26.19700050354004 22.143999099731445,-23.104999542236328 C32.17599868774414,-19.187999725341797 38.61000061035156,-8.798999786376953 37.0880012512207,2.3420000076293945 C34.946998596191406,18.01099967956543 15.838000297546387,28.8700008392334 0.43799999356269836,32.47100067138672z"/></g></g><g transform="matrix(-0.26831161975860596,0.8246404528617859,-0.8246404528617859,-0.26831161975860596,380.2676086425781,290.78472900390625)" opacity="1" style="display: block;"><g opacity="1" transform="matrix(1,0,0,1,28.601999282836914,27.638999938964844)"><path fill="rgb(62,18,3)" fill-opacity="1" d=" M-26.829999923706055,0.5580000281333923 C-25.760000228881836,8.392999649047852 -20.44700050354004,13.939000129699707 -13.47700023651123,17.976999282836914 C-6.506999969482422,22.014999389648438 2.121000051498413,24.54599952697754 9.819999694824219,26.34600067138672 C12.050999641418457,26.867000579833984 14.364999771118164,26.224000930786133 15.92199993133545,24.768999099731445 C17.479000091552734,23.31399917602539 18.280000686645508,21.047000885009766 17.486000061035156,18.31999969482422 C17.19700050354004,17.32699966430664 16.621999740600586,16.488000869750977 15.869000434875488,15.835000038146973 C15.116000175476074,15.182000160217285 14.1850004196167,14.71500015258789 13.180999755859375,14.46399974822998 C13.170999526977539,14.461999893188477 13.161999702453613,14.458999633789062 13.152000427246094,14.456000328063965 C13.142000198364258,14.45300006866455 13.133000373840332,14.451000213623047 13.123000144958496,14.447999954223633 C12.553000450134277,14.298999786376953 12.305999755859375,13.805000305175781 12.347999572753906,13.331000328063965 C12.390000343322754,12.857000350952148 12.720999717712402,12.402999877929688 13.305999755859375,12.333999633789062 C14.795999526977539,12.159000396728516 16.281999588012695,11.96399974822998 17.58799934387207,11.76099967956543 C18.893999099731445,11.559000015258789 20.020000457763672,11.348999977111816 20.790000915527344,11.145999908447266 C22.233999252319336,10.765999794006348 23.639999389648438,10.298999786376953 24.768999099731445,9.562000274658203 C25.898000717163086,8.824999809265137 26.74799919128418,7.818999767303467 27.077999114990234,6.363999843597412 C27.08799934387207,6.322999954223633 27.097000122070312,6.2820000648498535 27.106000900268555,6.242000102996826 C27.85099983215332,2.9179999828338623 25.743999481201172,-0.45100000500679016 22.552000045776367,-1.2130000591278076 C25.84000015258789,-1.5479999780654907 28.351999282836914,-4.453999996185303 28.040000915527344,-7.854000091552734 C28.035999298095703,-7.894999980926514 28.031999588012695,-7.935999870300293 28.027999877929688,-7.9770002365112305 C27.77400016784668,-10.694000244140625 25.7549991607666,-12.862000465393066 23.14900016784668,-13.383000373840332 C25.222000122070312,-14.902999877929688 26.2549991607666,-17.670000076293945 25.309999465942383,-20.33099937438965 C25.284000396728516,-20.402999877929688 25.257999420166016,-20.47599983215332 25.232999801635742,-20.547000885009766 C24.812999725341797,-21.716999053955078 23.952999114990234,-22.67099952697754 22.834999084472656,-23.214000701904297 C14.246000289916992,-27.388999938964844 -6.322000026702881,-27.24799919128418 -11.88700008392334,-24.88800048828125 C-21.91900062561035,-20.97100067138672 -28.351999282836914,-10.583000183105469 -26.829999923706055,0.5580000281333923z"/></g></g><g clip-path="url(#__lottie_element_10)" transform="matrix(0.41999995708465576,0,0,0.41999995708465576,96.71615600585938,19.10352325439453)" opacity="1" style="display: block;"><g transform="matrix(0.660637617111206,-0.00977652333676815,0.00977652333676815,0.660637617111206,300.4311828613281,30.675813674926758)" opacity="1" style="display: block;"><g opacity="1" transform="matrix(1,0,0,1,0,0)"><path fill="url(#__lottie_element_124)" fill-opacity="1" d=" M0.25,137.53 C49.96,98.93 58.94,57.12 59,32.15 C59.02,25.31 68.08,22.77 71.48,28.71 C82.52,47.98 86.58,74.89 78.2,120.81 C78.2,120.81 0.25,137.53 0.25,137.53z M77,88.03 C100.16,58.75 115.56,30.07 124.77,10.08 C129.3,0.25 143.89,2.51 145.25,13.24 C149.55,47.13 142.17,95.62 112.73,121.82 C103.48,130.05 89.56,130.14 80.19,122.05 C70.18,113.41 68.79,98.41 77,88.03z M165.64,135.3 C171.94,118.99 186.38,94.88 209.81,75.86 C217.4,69.69 212.46,57.3 202.71,58.11 C181.6,59.87 155.26,70.65 122.49,111.73 C109.57,127.92 121.59,151.8 142.29,150.98 C142.29,150.98 144,150.91 144,150.91 C153.7,150.53 162.14,144.35 165.64,135.3z"/><g opacity="1" transform="matrix(1,0,0,1,43.41299819946289,80.1520004272461)"/><g opacity="1" transform="matrix(1,0,0,1,109.1709976196289,65.19599914550781)"/><g opacity="1" transform="matrix(1,0,0,1,163.48300170898438,104.55000305175781)"/></g></g><g transform="matrix(0.6578636765480042,-0.06126173213124275,0.06126173213124275,0.6578636765480042,389.0865783691406,78.60494232177734)" opacity="1" style="display: block;"><g opacity="1" transform="matrix(1,0,0,1,0,0)"/><g opacity="1" transform="matrix(1,0,0,1,186.3730010986328,304.3800048828125)"><path fill="rgb(62,18,3)" fill-opacity="1" d=" M-74.30500030517578,102.00800323486328 C-74.30500030517578,2.496000051498413 -155.95799255371094,-122.3239974975586 -119.62000274658203,-214.69000244140625 C20.897293090820312,66.7246322631836 177.1969451904297,27.97426414489746 193.5115203857422,141.8824005126953 C204.66136169433594,219.95558166503906 156.7196044921875,277.5101013183594 83.07059478759766,277.5101013183594 C9.420598030090332,277.5101013183594 -74.30500030517578,201.5189971923828 -74.30500030517578,102.00800323486328z"/></g></g><g transform="matrix(0.6538488268852234,-0.09497027844190598,0.09497027844190598,0.6538488268852234,93.1988754272461,109.44837951660156)" opacity="1" style="display: block;"><g opacity="1" transform="matrix(1,0,0,1,186.37399291992188,304.3800048828125)"><path fill="rgb(62,18,3)" fill-opacity="1" d=" M74.30500030517578,102.00800323486328 C74.30500030517578,2.496000051498413 140.66799926757812,-138.5399932861328 118.26799774169922,-213.33799743652344 C-65.91972351074219,10.492029190063477 -195.99624633789062,-2.553112745285034 -195.99624633789062,133.5948944091797 C-195.99624633789062,233.10488891601562 -95.78463745117188,310.5118713378906 -22.135637283325195,310.5118713378906 C51.513362884521484,310.5118713378906 74.30500030517578,201.5189971923828 74.30500030517578,102.00800323486328z"/></g></g><g transform="matrix(0.660637617111206,-0.00977652333676815,0.00977652333676815,0.660637617111206,151.7191619873047,102.72057342529297)" opacity="1" style="display: block;"><path fill="url(#__lottie_element_86)" fill-opacity="1" d=" M444.61,20.82 C412.06,5.05 391.98,0.25 337.33,0.25 C285.07,0.25 265.41,3.9 236.13,17.54 C145.9,65.07 95.36,175.71 56.75,250.13 C0.25,359.05 229.36,432.25 337.33,432.25 C445.3,432.25 668.43,361.95 617.91,250.13 C580.22,166.72 532.72,69.43 444.61,20.82z"/><g opacity="1" transform="matrix(1,0,0,1,334.3389892578125,216.25)"/></g><g mask="url(#__lottie_element_109_1)" style="display: block;"><g transform="matrix(0.660637617111206,-0.00977652333676815,0.00977652333676815,0.660637617111206,266.8993835449219,68.77847290039062)" opacity="1"><g opacity="1" transform="matrix(1,0,0,1,175.56900024414062,99.02400207519531)"><path fill="rgb(243,126,38)" fill-opacity="1" d=" M175.31900024414062,-29.41200065612793 C148.58399963378906,-70.1989974975586 44.72200012207031,-98.77400207519531 -3.0429999828338623,-97.97599792480469 C-49.09400177001953,-97.20800018310547 -138.822998046875,-68.38700103759766 -175.3179931640625,-32.694000244140625 C-125.25700378417969,-48.37099838256836 -33.04199981689453,-10.835000038146973 -12.295000076293945,45.27299880981445 C-9.130000114440918,53.83100128173828 2.950000047683716,54.08599853515625 6.270999908447266,45.5880012512207 C27.940000534057617,-9.854999542236328 123.98600006103516,-43.9640007019043 175.31900024414062,-29.41200065612793z"/></g></g></g><g transform="matrix(0.660637617111206,-0.00977652333676815,0.00977652333676815,0.660637617111206,221.45651245117188,136.55686950683594)" opacity="1" style="display: block;"><g opacity="1" transform="matrix(1,0,0,1,89.58599853515625,130.76300048828125)"><path fill="rgb(153,71,20)" fill-opacity="1" d=" M89.33699798583984,0 C89.33699798583984,-70.81099700927734 70.8239974975586,-128.21299743652344 21.485000610351562,-128.21299743652344 C-36.2859992980957,-128.21299743652344 -89.33699798583984,-18.69499969482422 -89.33699798583984,52.1150016784668 C-89.33699798583984,122.92500305175781 -49.34000015258789,128.21299743652344 -0.0010000000474974513,128.21299743652344 C49.3380012512207,128.21299743652344 89.33699798583984,70.80999755859375 89.33699798583984,0z"/></g><g opacity="1" transform="matrix(1,0,0,1,104.34700012207031,32.82699966430664)"><path fill="rgb(0,0,0)" fill-opacity="1" d=" M66.72599792480469,32.57699966430664 C63.845001220703125,29.142000198364258 61.284000396728516,25.761999130249023 58.73899841308594,22.513999938964844 C56.17499923706055,19.274999618530273 53.720001220703125,16.142000198364258 51.19599914550781,13.21500015258789 C46.21500015258789,7.3420000076293945 41.21699905395508,2.1649999618530273 36.1349983215332,-1.7100000381469727 C34.88100051879883,-2.687000036239624 33.62300109863281,-3.5989999771118164 32.3390007019043,-4.381999969482422 C32.013999938964844,-4.572999954223633 31.715999603271484,-4.788000106811523 31.410999298095703,-4.995999813079834 C31.410999298095703,-4.995999813079834 30.47599983215332,-5.564000129699707 30.47599983215332,-5.564000129699707 C29.86400032043457,-5.956999778747559 29.23200035095215,-6.293000221252441 28.60700035095215,-6.61899995803833 C26.072999954223633,-7.875 23.69099998474121,-9.017000198364258 21.166000366210938,-9.699000358581543 C18.665000915527344,-10.411999702453613 16.16200065612793,-10.965999603271484 13.515999794006348,-11.258999824523926 C12.20300006866455,-11.435999870300293 10.848999977111816,-11.538000106811523 9.461999893188477,-11.574000358581543 C8.095000267028809,-11.654000282287598 6.563000202178955,-11.642999649047852 5.455999851226807,-11.59000015258789 C0.6470000147819519,-11.395999908447266 -4.576000213623047,-10.11299991607666 -10.270000457763672,-7.861000061035156 C-13.12600040435791,-6.76200008392334 -15.979000091552734,-5.267000198364258 -18.97599983215332,-3.7260000705718994 C-18.97599983215332,-3.7260000705718994 -21.19700050354004,-2.4830000400543213 -21.19700050354004,-2.4830000400543213 C-21.937000274658203,-2.0429999828338623 -22.66200065612793,-1.5880000591278076 -23.433000564575195,-1.1679999828338623 C-23.433000564575195,-1.1679999828338623 -25.70800018310547,0.1809999942779541 -25.70800018310547,0.1809999942779541 C-25.70800018310547,0.1809999942779541 -27.972999572753906,1.6160000562667847 -27.972999572753906,1.6160000562667847 C-34.07500076293945,5.48799991607666 -40.23500061035156,9.986000061035156 -46.63600158691406,14.725000381469727 C-49.862998962402344,17.077999114990234 -53.084999084472656,19.552000045776367 -56.446998596191406,22.033000946044922 C-59.79600143432617,24.525999069213867 -63.209999084472656,27.073999404907227 -66.95500183105469,29.538000106811523 C-66.95500183105469,29.538000106811523 -68.73799896240234,28.479999542236328 -68.73799896240234,28.479999542236328 C-64.71199798583984,21.41200065612793 -60.3650016784668,14.503000259399414 -55.52000045776367,7.922999858856201 C-50.632999420166016,1.3799999952316284 -45.29499816894531,-4.861000061035156 -39.36000061035156,-10.555999755859375 C-33.433998107910156,-16.25 -26.812999725341797,-21.31999969482422 -19.472999572753906,-25.256999969482422 C-12.145000457763672,-29.159000396728516 -3.9779999256134033,-31.878000259399414 4.499000072479248,-32.2859992980957 C12.887999534606934,-32.57699966430664 21.367000579833984,-31.180999755859375 29.09600067138672,-27.759000778198242 C36.819000244140625,-24.356000900268555 43.56700134277344,-18.964000701904297 48.861000061035156,-12.552000045776367 C54.19599914550781,-6.144999980926514 58.270999908447266,1.1369999647140503 61.47999954223633,8.685999870300293 C64.62699890136719,16.274999618530273 66.93699645996094,24.138999938964844 68.73799896240234,32.082000732421875 C68.73799896240234,32.082000732421875 66.72599792480469,32.57699966430664 66.72599792480469,32.57699966430664z"/></g></g><g transform="matrix(0.660637617111206,-0.00977652333676815,0.00977652333676815,0.660637617111206,407.41748046875,133.80821228027344)" opacity="1" style="display: block;"><g opacity="1" transform="matrix(1,0,0,1,89.58699798583984,130.75900268554688)"><path fill="rgb(153,71,20)" fill-opacity="1" d=" M-89.33699798583984,0 C-89.33699798583984,-70.81099700927734 -70.82499694824219,-128.21299743652344 -21.485000610351562,-128.21299743652344 C36.28499984741211,-128.21299743652344 89.33699798583984,-18.69499969482422 89.33699798583984,52.1150016784668 C89.33699798583984,122.92500305175781 49.34000015258789,128.21299743652344 0,128.21299743652344 C-49.3390007019043,128.21299743652344 -89.33699798583984,70.80999755859375 -89.33699798583984,0z"/></g><g opacity="1" transform="matrix(1,0,0,1,74.82599639892578,32.82500076293945)"><path fill="rgb(0,0,0)" fill-opacity="1" d=" M-68.73799896240234,32.08000183105469 C-66.93599700927734,24.136999130249023 -64.6240005493164,16.273000717163086 -61.47600173950195,8.684000015258789 C-58.27000045776367,1.1349999904632568 -54.19300079345703,-6.145999908447266 -48.85900115966797,-12.553000450134277 C-43.56399917602539,-18.96299934387207 -36.819000244140625,-24.358999252319336 -29.0939998626709,-27.759000778198242 C-21.364999771118164,-31.18199920654297 -12.88700008392334,-32.57500076293945 -4.5,-32.28900146484375 C3.9779999256134033,-31.885000228881836 12.145999908447266,-29.16200065612793 19.474000930786133,-25.260000228881836 C26.812999725341797,-21.32200050354004 33.4379997253418,-16.256000518798828 39.362998962402344,-10.560999870300293 C45.297000885009766,-4.866000175476074 50.6349983215332,1.3769999742507935 55.52299880981445,7.919000148773193 C60.367000579833984,14.5 64.71199798583984,21.40999984741211 68.73799896240234,28.47800064086914 C68.73799896240234,28.47800064086914 66.95500183105469,29.53499984741211 66.95500183105469,29.53499984741211 C63.19900131225586,27.077999114990234 59.77899932861328,24.53499984741211 56.42499923706055,22.045000076293945 C53.05799865722656,19.56800079345703 49.83300018310547,17.097999572753906 46.60100173950195,14.75 C40.19499969482422,10.017999649047852 34.0359992980957,5.5229997634887695 27.94099998474121,1.6490000486373901 C27.94099998474121,1.6490000486373901 25.673999786376953,0.21699999272823334 25.673999786376953,0.21699999272823334 C25.673999786376953,0.21699999272823334 23.398000717163086,-1.1299999952316284 23.398000717163086,-1.1299999952316284 C22.636999130249023,-1.5609999895095825 21.909000396728516,-2.01200008392334 21.170000076293945,-2.4509999752044678 C21.170000076293945,-2.4509999752044678 18.947999954223633,-3.690999984741211 18.947999954223633,-3.690999984741211 C15.949999809265137,-5.224999904632568 13.112000465393066,-6.743000030517578 10.25,-7.827000141143799 C4.566999912261963,-10.092000007629395 -0.6499999761581421,-11.37399959564209 -5.456999778747559,-11.590999603271484 C-6.563000202178955,-11.659000396728516 -8.093999862670898,-11.651000022888184 -9.463000297546387,-11.590999603271484 C-10.850000381469727,-11.560999870300293 -12.204000473022461,-11.442999839782715 -13.520000457763672,-11.28499984741211 C-16.170000076293945,-10.994000434875488 -18.67300033569336,-10.4399995803833 -21.18199920654297,-9.73900032043457 C-23.702999114990234,-9.043000221252441 -26.101999282836914,-7.921999931335449 -28.63599967956543,-6.658999919891357 C-29.26099967956543,-6.331999778747559 -29.892000198364258,-5.994999885559082 -30.5049991607666,-5.60099983215332 C-30.5049991607666,-5.60099983215332 -31.43899917602539,-5.031000137329102 -31.43899917602539,-5.031000137329102 C-31.73900032043457,-4.815999984741211 -32.05500030517578,-4.618000030517578 -32.37699890136719,-4.421999931335449 C-33.6609992980957,-3.63700008392334 -34.917999267578125,-2.7230000495910645 -36.172000885009766,-1.7430000305175781 C-41.26100158691406,2.134000062942505 -46.262001037597656,7.315000057220459 -51.23699951171875,13.194999694824219 C-53.755001068115234,16.125999450683594 -56.207000732421875,19.261999130249023 -58.76499938964844,22.503000259399414 C-61.30400085449219,25.753999710083008 -63.85599899291992,29.136999130249023 -66.7249984741211,32.57500076293945 C-66.7249984741211,32.57500076293945 -68.73799896240234,32.08000183105469 -68.73799896240234,32.08000183105469z"/></g></g><g transform="matrix(0.660637617111206,-0.00977652333676815,0.00977652333676815,0.660637617111206,235.6431427001953,178.77244567871094)" opacity="1" style="display: block;"><g opacity="1" transform="matrix(1,0,0,1,79.3239974975586,79.91300201416016)"><path fill="rgb(255,255,255)" fill-opacity="1" d=" M79.07499694824219,0 C79.07499694824219,-43.99700164794922 43.672000885009766,-79.66300201416016 0.0010000000474974513,-79.66300201416016 C-43.67100143432617,-79.66300201416016 -79.07499694824219,-43.99700164794922 -79.07499694824219,0 C-79.07499694824219,43.99599838256836 -43.67100143432617,79.66300201416016 0.0010000000474974513,79.66300201416016 C43.672000885009766,79.66300201416016 79.07499694824219,43.99599838256836 79.07499694824219,0z"/></g></g><g transform="matrix(0.660637617111206,-0.00977652333676815,0.00977652333676815,0.660637617111206,265.7467956542969,200.4015655517578)" opacity="1" style="display: block;"><g opacity="1" transform="matrix(1,0,0,1,37.380001068115234,37.380001068115234)"><path fill="rgb(67,130,226)" fill-opacity="1" d=" M37.13100051879883,0 C37.13100051879883,-20.506999969482422 20.506999969482422,-37.130001068115234 0.0010000000474974513,-37.130001068115234 C-20.506000518798828,-37.130001068115234 -37.13100051879883,-20.506999969482422 -37.13100051879883,0 C-37.13100051879883,20.506000518798828 -20.506000518798828,37.130001068115234 0.0010000000474974513,37.130001068115234 C20.506999969482422,37.130001068115234 37.13100051879883,20.506000518798828 37.13100051879883,0z"/></g><g opacity="1" transform="matrix(1,0,0,1,37.38100051879883,37.380001068115234)"><path fill="rgb(0,0,0)" fill-opacity="1" d=" M22.10099983215332,0 C22.10099983215332,-12.206999778747559 12.206000328063965,-22.101999282836914 0,-22.101999282836914 C-12.206000328063965,-22.10099983215332 -22.10099983215332,-12.206000328063965 -22.10099983215332,0 C-22.10099983215332,12.206999778747559 -12.206000328063965,22.101999282836914 0,22.101999282836914 C12.206000328063965,22.101999282836914 22.10099983215332,12.206000328063965 22.10099983215332,0z"/></g><g opacity="1" transform="matrix(1,0,0,1,48.40599822998047,18.195999145507812)"><path fill="rgb(255,255,255)" fill-opacity="1" d=" M6.171000003814697,3.8989999294281006 C9.42300033569336,-1.246999979019165 9.295000076293945,-7.164999961853027 5.88700008392334,-9.317999839782715 C2.4790000915527344,-11.472000122070312 -2.9189999103546143,-9.045999526977539 -6.171000003814697,-3.8989999294281006 C-9.42199993133545,1.246999979019165 -9.29699993133545,7.164999961853027 -5.888999938964844,9.317999839782715 C-2.4809999465942383,11.472000122070312 2.9189999103546143,9.045000076293945 6.171000003814697,3.8989999294281006z"/></g></g><g style="display: none;"><g><path/></g></g><g transform="matrix(0.660637617111206,-0.00977652333676815,0.00977652333676815,0.660637617111206,407.99029541015625,176.2219696044922)" opacity="1" style="display: block;"><g opacity="1" transform="matrix(1,0,0,1,79.3239974975586,79.91300201416016)"><path fill="rgb(255,255,255)" fill-opacity="1" d=" M-79.0739974975586,0 C-79.0739974975586,-43.99700164794922 -43.672000885009766,-79.66300201416016 0,-79.66300201416016 C43.67100143432617,-79.66300201416016 79.0739974975586,-43.99700164794922 79.0739974975586,0 C79.0739974975586,43.99599838256836 43.67100143432617,79.66300201416016 0,79.66300201416016 C-43.672000885009766,79.66300201416016 -79.0739974975586,43.99599838256836 -79.0739974975586,0z"/></g></g><g transform="matrix(0.660637617111206,-0.00977652333676815,0.00977652333676815,0.660637617111206,426.0135192871094,198.0298309326172)" opacity="1" style="display: block;"><g opacity="1" transform="matrix(1,0,0,1,37.38100051879883,37.380001068115234)"><path fill="rgb(67,130,226)" fill-opacity="1" d=" M37.13100051879883,0 C37.13100051879883,-20.506999969482422 20.506000518798828,-37.130001068115234 -0.0010000000474974513,-37.130001068115234 C-20.506999969482422,-37.130001068115234 -37.13100051879883,-20.506999969482422 -37.13100051879883,0 C-37.13100051879883,20.506000518798828 -20.506999969482422,37.130001068115234 -0.0010000000474974513,37.130001068115234 C20.506000518798828,37.130001068115234 37.13100051879883,20.506000518798828 37.13100051879883,0z"/></g><g opacity="1" transform="matrix(1,0,0,1,37.38100051879883,37.380001068115234)"><path fill="rgb(0,0,0)" fill-opacity="1" d=" M22.10099983215332,0 C22.10099983215332,-12.206999778747559 12.204999923706055,-22.101999282836914 -0.0010000000474974513,-22.101999282836914 C-12.206999778747559,-22.10099983215332 -22.10099983215332,-12.206000328063965 -22.10099983215332,0 C-22.10099983215332,12.206999778747559 -12.206999778747559,22.101999282836914 -0.0010000000474974513,22.101999282836914 C12.204999923706055,22.101999282836914 22.10099983215332,12.206000328063965 22.10099983215332,0z"/></g><g opacity="1" transform="matrix(1,0,0,1,48.404998779296875,18.195999145507812)"><path fill="rgb(255,255,255)" fill-opacity="1" d=" M6.171000003814697,3.8989999294281006 C9.42300033569336,-1.246999979019165 9.295999526977539,-7.164999961853027 5.888000011444092,-9.317999839782715 C2.4800000190734863,-11.472000122070312 -2.9189999103546143,-9.045999526977539 -6.171000003814697,-3.8989999294281006 C-9.42300033569336,1.246999979019165 -9.295999526977539,7.164999961853027 -5.888000011444092,9.317999839782715 C-2.4790000915527344,11.472000122070312 2.9189999103546143,9.045000076293945 6.171000003814697,3.8989999294281006z"/></g></g><g style="display: none;"><g><path/></g></g><g transform="matrix(0.660637617111206,-0.00977652333676815,0.00977652333676815,0.660637617111206,157.0038604736328,251.13270568847656)" opacity="1" style="display: block;"><path fill="url(#__lottie_element_80)" fill-opacity="1" d=" M492.56,17.37 C429.55,26.76 368.57,56.52 325.32,94.27 C282.08,56.52 221.1,26.76 158.08,17.37 C43.1,0.25 0.25,51.48 0.25,130.77 C0.25,210.06 85.63,279.98 201.8,279.98 C252.47,279.98 294.28,280.56 325.32,274.64 C356.37,280.56 398.18,279.98 448.84,279.98 C565.01,279.98 650.4,210.06 650.4,130.77 C650.4,51.48 607.55,0.25 492.56,17.37z"/><g opacity="1" transform="matrix(1,0,0,1,325.3240051269531,140.40499877929688)"/></g><g transform="matrix(0.660637617111206,-0.00977652333676815,0.00977652333676815,0.660637617111206,270.052001953125,285.57745361328125)" opacity="1" style="display: block;"><path fill="url(#__lottie_element_76)" fill-opacity="1" d=" M319.44,77.95 C319.44,12.38 243.34,0.25 159.84,0.25 C76.35,0.25 0.25,12.38 0.25,77.95 C0.25,143.53 76.35,272.32 159.84,272.32 C243.34,272.32 319.44,143.53 319.44,77.95z"/><g opacity="1" transform="matrix(1,0,0,1,159.84300231933594,136.2830047607422)"/></g><g transform="matrix(0.660637617111206,-0.00977652333676815,0.00977652333676815,0.660637617111206,297.3851318359375,234.73544311523438)" opacity="1" style="display: block;"><path fill="url(#__lottie_element_72)" fill-opacity="1" d=" M249.58,93.36 C249.41,48.71 193.45,0.25 124.65,0.51 C55.85,0.76 0.25,49.63 0.42,94.29 C0.58,138.95 56.5,175.4 125.3,175.14 C194.1,174.89 249.74,138.02 249.58,93.36z"/><g opacity="1" transform="matrix(1,0,0,1,124.99700164794922,87.82599639892578)"/></g><g transform="matrix(-0.660637617111206,0.00977652333676815,0.00977652333676815,0.660637617111206,438.0766906738281,243.24441528320312)" opacity="1" style="display: block;"><path fill="url(#__lottie_element_68)" fill-opacity="1" d=" M164.99,49.03 C164.99,21.21 128.11,0.25 82.62,0.25 C37.13,0.25 0.25,21.21 0.25,49.03 C0.25,76.86 37.13,107.41 82.62,107.41 C128.11,107.41 164.99,76.86 164.99,49.03z"/><g opacity="1" transform="matrix(1,0,0,1,82.62000274658203,53.83100128173828)"/></g><g transform="matrix(0.660637617111206,-0.00977652333676815,0.00977652333676815,0.660637617111206,276.22265625,337.38726806640625)" opacity="1" style="display: block;"><g opacity="1" transform="matrix(1,0,0,1,153.54600524902344,64.71499633789062)"><path fill="rgb(0,0,0)" fill-opacity="1" d=" M148.94500732421875,-64.46499633789062 C147.93899536132812,-64.46499633789062 146.98899841308594,-64.03299713134766 146.31500244140625,-63.2859992980957 C118.61799621582031,-32.573001861572266 65.63200378417969,-7.71999979019165 4.770999908447266,-7.4120001792907715 C-55.540000915527344,-7.10699987411499 -113.63200378417969,-32.44599914550781 -145.22300720214844,-63.446998596191406 C-145.88600158691406,-64.0979995727539 -146.76800537109375,-64.46499633789062 -147.69700622558594,-64.46499633789062 C-147.69700622558594,-64.46499633789062 -148.86399841308594,-64.46499633789062 -148.86399841308594,-64.46499633789062 C-151.57400512695312,-64.46499633789062 -153.29600524902344,-61.54199981689453 -151.95599365234375,-59.1879997253418 C-122.447998046875,-7.327000141143799 -60.11800003051758,64.46499633789062 4.770999908447266,64.13700103759766 C70.21600341796875,63.805999755859375 126.54900360107422,-7.895999908447266 152.1300048828125,-59.361000061035156 C153.2969970703125,-61.709999084472656 151.5679931640625,-64.46499633789062 148.94500732421875,-64.46499633789062z"/></g><g opacity="1" transform="matrix(1,0,0,1,155.7259979248047,104.91500091552734)"><path fill="rgb(227,6,19)" fill-opacity="1" d=" M82.43699645996094,-10.664999961853027 C63.770999908447266,-28.27899932861328 36.400001525878906,-20.371000289916992 6.089000225067139,-20.371000289916992 C-22.75,-20.371000289916992 -46.28300094604492,-15.385000228881836 -70.70700073242188,-3.7799999713897705 C-44.87300109863281,17.65399932861328 -26.14299964904785,24.08799934387207 3.7269999980926514,23.937000274658203 C32.768001556396484,23.790000915527344 58.875,9.585000038146973 82.43699645996094,-10.664999961853027z"/></g></g><g style="display: none;"><g><path/></g><g><path/></g><g><path/></g></g></g></g></svg>